# xmcd
#
# Track frame offsets: 
#        150
#        15063
#        30119
#        45266
#        58246
#        76186
#        92917
#        118248
#        140298
#        156469
#
# Disc length: 2248 seconds
#
# Revision: 0
# Processed by: cddbd v1.5.2PL0 Copyright (c) Steve Scherf et al.
# Submitted via: ExactAudioCopyFreeDBPlugin 1.0
#
DISCID=6e08c60a
DTITLE=The Bad Sign Blues Band - Out for Trouble!
DYEAR=1900
DGENRE=Blues
TTITLE0=Evil
TTITLE1=The Swing
TTITLE2=Freeway Blues
TTITLE3=Hey Baby
TTITLE4=Slow Blues
TTITLE5=Hard Rain
TTITLE6=The Band
TTITLE7=Little Sister
TTITLE8=Your Heaven
TTITLE9=Out For Trouble
EXTD=
EXTT0=
EXTT1=
EXTT2=
EXTT3=
EXTT4=
EXTT5=
EXTT6=
EXTT7=
EXTT8=
EXTT9=
PLAYORDER=
